<mxfile host="app.diagrams.net" modified="2023-06-15T01:45:50.538Z" agent="Mozilla/5.0 (Windows NT 10.0; Win64; x64; rv:109.0) Gecko/20100101 Firefox/114.0" version="21.4.0" etag="FNSDsVSoOGCeuCQ8ucmH" type="github">
  <diagram name="第 1 页" id="_UgcG9p29ehp5ApdEK7W">
    <mxGraphModel>
      <root>
        <mxCell id="0" />
        <mxCell id="1" parent="0" />
      </root>
    </mxGraphModel>
  </diagram>
</mxfile>
